<svg width="47" height="41" viewBox="0 0 47 41" fill="none" xmlns="http://www.w3.org/2000/svg">
<path d="M4.73901 3.20312H6.16958V4.48438H4.73901V3.20312Z" fill="#4628A4"/>
<path d="M7.6001 3.20312H9.03067V4.48438H7.6001V3.20312Z" fill="#4628A4"/>
<path d="M10.4612 3.20312H11.8918V4.48438H10.4612V3.20312Z" fill="#4628A4"/>
<path d="M5.4543 19.2188H21.1906C21.3803 19.2188 21.5622 19.1513 21.6963 19.0311C21.8305 18.911 21.9058 18.748 21.9058 18.5781V8.32812C21.9058 8.15822 21.8305 7.99528 21.6963 7.87513C21.5622 7.75499 21.3803 7.6875 21.1906 7.6875H5.4543C5.26459 7.6875 5.08266 7.75499 4.94852 7.87513C4.81437 7.99528 4.73901 8.15822 4.73901 8.32812V18.5781C4.73901 18.748 4.81437 18.911 4.94852 19.0311C5.08266 19.1513 5.26459 19.2188 5.4543 19.2188ZM6.16958 8.96875H20.4753V17.9375H6.16958V8.96875Z" fill="#4628A4"/>
<path d="M5.4543 31.3906H21.1906C21.3803 31.3906 21.5622 31.3231 21.6963 31.203C21.8305 31.0829 21.9058 30.9199 21.9058 30.75V21.1406C21.9058 20.9707 21.8305 20.8078 21.6963 20.6876C21.5622 20.5675 21.3803 20.5 21.1906 20.5H5.4543C5.26459 20.5 5.08266 20.5675 4.94852 20.6876C4.81437 20.8078 4.73901 20.9707 4.73901 21.1406V30.75C4.73901 30.9199 4.81437 31.0829 4.94852 31.203C5.08266 31.3231 5.26459 31.3906 5.4543 31.3906ZM6.16958 21.7812H20.4753V30.1094H6.16958V21.7812Z" fill="#4628A4"/>
<path d="M34.0657 31.3906H35.4962V32.6719H34.0657V31.3906Z" fill="#4628A4"/>
<path d="M39.7878 31.3906H41.2184V32.6719H39.7878V31.3906Z" fill="#4628A4"/>
<path d="M37.6421 35.875C37.2627 35.875 36.8989 35.74 36.6306 35.4997C36.3623 35.2595 36.2116 34.9336 36.2116 34.5938H34.781C34.781 35.2734 35.0824 35.9251 35.619 36.4057C36.1556 36.8863 36.8833 37.1562 37.6421 37.1562C38.401 37.1562 39.1287 36.8863 39.6653 36.4057C40.2018 35.9251 40.5033 35.2734 40.5033 34.5938H39.0727C39.0727 34.9336 38.922 35.2595 38.6537 35.4997C38.3854 35.74 38.0216 35.875 37.6421 35.875Z" fill="#4628A4"/>
<path d="M16.5411 12.8971L11.5341 10.3346C11.4253 10.2783 11.3018 10.2487 11.1761 10.2488C11.0504 10.2488 10.927 10.2785 10.8182 10.3349C10.7094 10.3913 10.6192 10.4724 10.5565 10.5699C10.4938 10.6675 10.4609 10.7781 10.4612 10.8907V16.0157C10.4609 16.1282 10.4938 16.2389 10.5565 16.3364C10.6192 16.434 10.7094 16.515 10.8182 16.5714C10.927 16.6278 11.0504 16.6575 11.1761 16.6576C11.3018 16.6576 11.4253 16.628 11.5341 16.5717L16.5411 14.0092C16.6505 13.9532 16.7414 13.8722 16.8047 13.7746C16.8679 13.6769 16.9012 13.5661 16.9012 13.4532C16.9012 13.3403 16.8679 13.2294 16.8047 13.1318C16.7414 13.0341 16.6505 12.9532 16.5411 12.8971V12.8971ZM11.8918 14.9112V11.9951L14.7414 13.4532L11.8918 14.9112Z" fill="#4628A4"/>
<path d="M38.3574 19.8594C38.4934 19.8594 38.6267 19.8247 38.7415 19.7594C38.8563 19.694 38.9479 19.6007 39.0056 19.4903C39.0632 19.3799 39.0846 19.2571 39.0671 19.1363C39.0496 19.0155 38.9939 18.9016 38.9067 18.8081L35.3303 14.9644C35.2667 14.8959 35.1878 14.8402 35.0988 14.8006C35.0098 14.761 34.9125 14.7384 34.8132 14.7344C34.7137 14.729 34.6142 14.7429 34.5213 14.7752C34.4285 14.8074 34.3445 14.8573 34.2753 14.9214L33.2259 15.8619L31.7475 14.318C31.6784 14.2507 31.5945 14.197 31.501 14.1602C31.4076 14.1235 31.3066 14.1045 31.2046 14.1045C31.1025 14.1045 31.0016 14.1235 30.9081 14.1602C30.8146 14.197 30.7307 14.2507 30.6617 14.318L26.37 18.8023C26.2811 18.8954 26.2239 19.0092 26.2051 19.1305C26.1862 19.2517 26.2066 19.3753 26.2637 19.4865C26.3208 19.5977 26.4123 19.6919 26.5274 19.758C26.6424 19.8241 26.7762 19.8593 26.9129 19.8594H38.3574ZM28.4679 18.5781L31.2046 15.7184L33.9412 18.5781H28.4679ZM34.7331 16.3238L36.8303 18.5781H35.8253L34.1594 16.8375L34.7331 16.3238Z" fill="#4628A4"/>
<path d="M44.0797 1.28125H2.59321C2.40351 1.28125 2.22157 1.34874 2.08743 1.46888C1.95329 1.58903 1.87793 1.75197 1.87793 1.92187V33.3125C1.87793 33.4824 1.95329 33.6453 2.08743 33.7655C2.22157 33.8856 2.40351 33.9531 2.59321 33.9531H30.5258C30.7108 35.5873 31.5895 37.0954 32.9806 38.1659C34.3716 39.2364 36.1686 39.7874 38.0003 39.7052C39.8319 39.623 41.5584 38.9137 42.8229 37.724C44.0874 36.5343 44.7934 34.9551 44.795 33.3125V1.92187C44.795 1.75197 44.7196 1.58903 44.5855 1.46888C44.4513 1.34874 44.2694 1.28125 44.0797 1.28125V1.28125ZM37.6421 38.4375C36.5104 38.4375 35.404 38.1369 34.463 37.5738C33.522 37.0106 32.7886 36.2102 32.3555 35.2737C31.9223 34.3373 31.809 33.3068 32.0298 32.3127C32.2506 31.3185 32.7956 30.4053 33.5959 29.6886C34.3962 28.9718 35.4158 28.4837 36.5258 28.286C37.6358 28.0882 38.7864 28.1897 39.832 28.5776C40.8776 28.9655 41.7713 29.6224 42.4 30.4652C43.0288 31.308 43.3644 32.2989 43.3644 33.3125C43.3627 34.6713 42.7593 35.9739 41.6865 36.9347C40.6138 37.8955 39.1593 38.436 37.6421 38.4375ZM31.4571 30.1094H24.767V8.96875H40.5033V27.445C38.8939 26.812 37.0802 26.7339 35.4105 27.2257C33.7408 27.7175 32.3328 28.7445 31.4571 30.1094V30.1094ZM43.3644 29.4854C42.9575 28.9987 42.4759 28.5658 41.9338 28.1997V8.32812C41.9338 8.15822 41.8585 7.99527 41.7243 7.87513C41.5902 7.75499 41.4083 7.6875 41.2186 7.6875H24.0517C23.862 7.6875 23.6801 7.75499 23.546 7.87513C23.4118 7.99527 23.3365 8.15822 23.3365 8.32812V30.75C23.3365 30.9199 23.4118 31.0828 23.546 31.203C23.6801 31.3231 23.862 31.3906 24.0517 31.3906H30.819C30.6722 31.8075 30.5739 32.2369 30.5258 32.6719H3.3085V6.40625H43.3644V29.4854ZM43.3644 5.125H3.3085V2.5625H43.3644V5.125Z" fill="#4628A4"/>
<path d="M7.6001 23.0625H19.0446V24.3438H7.6001V23.0625Z" fill="#4628A4"/>
<path d="M7.6001 25.625H19.0446V26.9062H7.6001V25.625Z" fill="#4628A4"/>
</svg>
